<?xml version="1.0" standalone="no"?>
<!DOCTYPE svg PUBLIC "-//W3C//DTD SVG 20010904//EN"
 "http://www.w3.org/TR/2001/REC-SVG-20010904/DTD/svg10.dtd">
<svg version="1.0" xmlns="http://www.w3.org/2000/svg"
 width="226.000000pt" height="247.000000pt" viewBox="0 0 226.000000 247.000000"
 preserveAspectRatio="xMidYMid meet">

<g transform="translate(0.000000,247.000000) scale(0.100000,-0.100000)"
fill="#000000" stroke="none">
<path d="M1148 2004 c-12 -12 -20 -14 -36 -5 -53 28 -98 -5 -90 -66 5 -36 3
-39 -34 -57 -50 -23 -78 -68 -78 -124 0 -57 36 -96 83 -89 19 2 41 -2 55 -11
18 -12 27 -12 51 -2 25 10 34 9 53 -4 31 -22 71 -20 93 4 10 11 27 20 37 20
32 0 78 54 78 91 0 43 -32 91 -75 115 -34 18 -35 20 -29 62 5 33 2 47 -11 62
-22 24 -74 26 -97 4z m-122 -201 c-10 -10 -19 5 -10 18 6 11 8 11 12 0 2 -7 1
-15 -2 -18z m254 17 c0 -5 -4 -10 -10 -10 -5 0 -10 5 -10 10 0 6 5 10 10 10 6
0 10 -4 10 -10z m-66 -31 c-3 -5 -10 -7 -15 -3 -5 3 -7 10 -3 15 3 5 10 7 15
3 5 -3 7 -10 3 -15z m-234 -39 c0 -5 -4 -10 -10 -10 -5 0 -10 5 -10 10 0 6 5
10 10 10 6 0 10 -4 10 -10z m100 -11 c0 -5 -4 -9 -10 -9 -5 0 -10 7 -10 16 0
8 5 12 10 9 6 -3 10 -10 10 -16z m220 1 c0 -5 -4 -10 -10 -10 -5 0 -10 5 -10
10 0 6 5 10 10 10 6 0 10 -4 10 -10z m-100 -20 c0 -5 -4 -10 -10 -10 -5 0 -10
5 -10 10 0 6 5 10 10 10 6 0 10 -4 10 -10z"/>
<path d="M895 1178 c-40 -22 -65 -52 -65 -78 0 -31 17 -50 43 -50 17 0 19 -5
14 -35 -5 -30 -3 -35 14 -35 31 0 94 36 123 70 38 46 38 83 0 118 -28 24 -94
30 -129 10z m125 -16 c57 -46 -2 -143 -102 -167 -27 -7 -27 -6 -17 23 5 16 20
35 32 41 15 8 16 10 3 6 -16 -5 -18 -1 -12 29 6 32 5 34 -16 28 -17 -4 -19 -7
-6 -11 11 -5 13 -12 7 -28 -16 -44 -74 -19 -67 29 8 56 129 90 178 50z"/>
<path d="M1317 1015 c-32 -28 -69 -32 -87 -10 -7 9 -21 13 -31 10 -11 -4 -19
-2 -19 5 0 7 -8 5 -22 -4 -29 -21 -68 -20 -83 1 -14 19 -35 9 -35 -17 0 -18 5
-19 48 -13 26 3 56 10 66 16 16 8 18 6 13 -7 -8 -20 2 -20 24 0 17 15 19 15
35 -1 12 -12 27 -15 51 -12 18 3 35 1 39 -4 4 -6 13 -4 24 6 12 11 20 13 25 6
11 -18 61 -12 86 10 l24 21 -25 -16 c-34 -22 -77 -20 -89 3 -6 10 -7 21 -4 25
18 18 -16 2 -40 -19z m27 -10 c-6 -16 -24 -21 -24 -7 0 11 11 22 21 22 5 0 6
-7 3 -15z m-279 -5 c3 -5 1 -10 -4 -10 -6 0 -11 5 -11 10 0 6 2 10 4 10 3 0 8
-4 11 -10z"/>
<path d="M686 902 c-8 -16 -24 -66 -36 -113 -31 -121 -43 -124 -37 -9 5 103
-3 140 -30 140 -17 0 -18 -13 -18 -172 0 -170 0 -173 22 -176 24 -4 21 -11 67
175 24 96 49 163 62 163 4 0 5 -73 3 -162 -4 -161 -4 -163 18 -166 18 -3 24 4
33 40 47 177 75 258 91 258 8 0 9 -41 4 -143 -7 -127 -6 -145 9 -160 31 -31
71 -15 89 36 8 20 27 14 27 -8 0 -21 46 -48 68 -41 10 4 25 18 32 31 l13 25
28 -32 c23 -28 30 -31 46 -22 24 15 49 60 57 104 8 45 -6 28 -28 -33 -10 -26
-23 -46 -30 -44 -6 2 -13 38 -16 92 l-5 89 -52 3 c-65 3 -80 -9 -131 -106 -60
-117 -66 -110 -57 73 8 165 3 186 -36 186 -22 0 -42 -36 -80 -145 l-27 -80 -1
86 c-1 71 -5 91 -22 113 -26 34 -45 33 -63 -2z m427 -148 c10 -10 -49 -164
-64 -164 -14 0 -20 59 -10 96 15 54 53 89 74 68z"/>
<path d="M1424 839 c-10 -17 23 -46 37 -32 7 7 9 19 6 27 -7 18 -33 21 -43 5z"/>
<path d="M1235 828 c-15 -47 -8 -74 24 -88 l30 -12 -6 -82 c-5 -68 -3 -84 11
-95 26 -21 63 -5 93 42 26 40 28 41 31 17 9 -58 62 -70 90 -20 20 35 28 37 37
10 15 -47 75 -49 99 -3 l13 27 12 -22 c17 -32 49 -46 67 -31 21 17 40 58 47
99 5 30 2 28 -20 -20 -13 -30 -27 -57 -29 -60 -14 -13 -24 34 -22 100 l3 75
-52 9 c-64 11 -97 -7 -119 -62 -33 -84 -58 -131 -66 -126 -4 3 -8 40 -8 84 0
63 -3 79 -17 84 -18 7 -33 -9 -33 -39 -1 -25 -36 -104 -57 -127 -30 -33 -36
-21 -30 57 l7 75 -33 16 c-32 15 -34 18 -29 60 4 40 2 44 -17 44 -12 0 -24 -6
-26 -12z m427 -74 c7 -7 -38 -144 -52 -158 -14 -14 -32 43 -25 80 10 53 56
100 77 78z"/>
</g>
</svg>
